<?xml version="1.0" encoding="UTF-8"?>
<svg id="Calque_2" data-name="Calque 2" xmlns="http://www.w3.org/2000/svg" viewBox="0 0 311.91 75.34">
  <defs>
    <style>
      .cls-1 {
        fill: #051039;
      }

      .cls-2 {
        fill: red;
      }
    </style>
  </defs>
  <g id="Calque_1-2" data-name="Calque 1">
    <g id="b">
      <g id="c">
        <g>
          <path class="cls-1" d="m23.05,25.65c2.56,0,4.32-1.44,4.32-3.75s-1.9-3.39-4.39-3.39h-14.86v7.15h14.93Zm-1.03-12.57c2.85,0,4.32-1.44,4.32-3.61s-1.54-3.25-4.46-3.25h-13.76v6.86s13.9,0,13.9,0ZM0,.59h22.31c7.32,0,12.44,2.89,12.44,8.23,0,2.67-1.46,4.98-4.02,6.5,3.29,1.16,5.05,3.75,5.05,6.5,0,5.42-5.19,9.46-12.95,9.46H0V.59Z"/>
          <path class="cls-1" d="m42.14.59h8.05v15.6c0,6.64,4.83,9.32,11.71,9.32,6.51,0,11.7-2.67,11.7-9.32V.59h8.05v15.74c0,9.89-6.88,15.53-19.75,15.53s-19.75-5.7-19.75-15.53V.59h-.01Z"/>
          <path class="cls-1" d="m89.04,23.41c4.24,1.52,10.24,2.74,15.95,2.74,7.24,0,10.17-1.44,10.17-3.11,0-2.17-2.85-2.82-12.88-4.48-9.8-1.59-14.41-4.62-14.41-9.46,0-5.34,6.14-9.1,19.31-9.1,5.27,0,11.27,1.01,15.22,2.24v5.99c-4.32-1.59-10.17-2.53-15-2.53-7.75,0-10.68,1.16-10.68,2.89,0,1.95,2.71,2.53,11.05,4.04,10.53,1.95,16.61,3.54,16.61,9.75s-7.46,9.46-19.39,9.46c-5.78,0-12.14-.94-15.95-2.24v-6.21.02Z"/>
          <rect class="cls-1" x="131.49" y=".59" width="8.19" height="30.69"/>
          <polygon class="cls-1" points="149.68 .59 155.61 .59 178.8 19.94 178.8 .59 185.53 .59 185.53 31.28 179.68 31.28 156.42 11.56 156.42 31.28 149.68 31.28 149.68 .59"/>
          <polygon class="cls-1" points="195.25 .59 226.71 .59 226.71 6.22 203.45 6.22 203.45 12.87 226.34 12.87 226.34 18.5 203.45 18.5 203.45 25.65 226.64 25.65 226.64 31.28 195.25 31.28 195.25 .59"/>
          <path class="cls-1" d="m235.09,23.41c4.24,1.52,10.24,2.74,15.95,2.74,7.24,0,10.17-1.44,10.17-3.11,0-2.17-2.85-2.82-12.88-4.48-9.8-1.59-14.41-4.62-14.41-9.46,0-5.34,6.15-9.1,19.31-9.1,5.27,0,11.27,1.01,15.22,2.24v5.99c-4.32-1.59-10.17-2.53-15-2.53-7.75,0-10.68,1.16-10.68,2.89,0,1.95,2.71,2.53,11.05,4.04,10.53,1.95,16.61,3.54,16.61,9.75s-7.46,9.46-19.39,9.46c-5.78,0-12.14-.94-15.95-2.24v-6.21.02Z"/>
          <path class="cls-1" d="m276.57,23.41c4.24,1.52,10.24,2.74,15.95,2.74,7.24,0,10.17-1.44,10.17-3.11,0-2.17-2.85-2.82-12.88-4.48-9.8-1.59-14.41-4.62-14.41-9.46,0-5.34,6.15-9.1,19.31-9.1,5.27,0,11.27,1.01,15.22,2.24v5.99c-4.32-1.59-10.17-2.53-15-2.53-7.75,0-10.68,1.16-10.68,2.89,0,1.95,2.71,2.53,11.05,4.04,10.53,1.95,16.61,3.54,16.61,9.75s-7.46,9.46-19.39,9.46c-5.78,0-12.14-.94-15.95-2.24v-6.21.02Z"/>
        </g>
        <g>
          <path class="cls-2" d="m271.12,53.1c-4.08,4.37-11.52,21.11-18.59,21.33v.52h12.9c7.69.33,15.16-17.35,19.52-21.85h-13.83Z"/>
          <path class="cls-1" d="m57.58,74.95v-20.01h5.84v20.01h-5.84Zm134.63,0l-14.03-11.88v11.88h-4.93v-20.01h4.19l13.84,11.7v-11.7h4.93v20.01s-4,0-4,0Zm30.51-13.55c-23.71-10.85-22.83,18.34.19,6.7v4.95c-31.4,11.99-32.68-27.46-.19-16.65v4.99h0Zm-126.81,13.55v-20.01h19.51v4.29h-13.68v4.97h13.37v4.29h-13.37v6.46h-5.84,0Zm130.34,0v-20.01h20.26v4.29h-14.42v3.47h14.19v4.29h-14.19v3.67h14.36v4.29h-20.2Zm-90.55-7.51l8.07,7.51c-2.08-.22-7.82.74-9.24-1.13l-5.49-5.32c-.17-.34-3.88-.09-4.21-.16v6.62h-5.84v-20.01h12.64c11.46-.6,11.46,10.37,4.06,12.5h.01Zm-4.66-3.3c4.5.06,4.7-5.03,0-4.91h-6.21v4.91h6.21Zm-45.44,3.3l8.06,7.51c-2.08-.22-7.82.74-9.24-1.13l-5.49-5.32c-.17-.34-3.88-.09-4.21-.16v6.62h-5.84v-20.01h12.64c11.46-.6,11.46,10.37,4.06,12.5h.02Zm-4.66-3.3c4.5.06,4.7-5.03,0-4.91h-6.21v4.91h6.21Zm-32.49,10.81l-2.56-4.39h-11.18l-2.33,4.39h-5.57l11.14-19.99h5.07l12.62,19.99h-7.2.01Zm-11.51-8.56h6.52l-3.38-6.11-3.14,6.11h0Zm128.07,8.56l-2.5-4.39h-10.89l-2.25,4.39h-5.42l10.85-19.99h4.93l12.27,19.99h-6.99Zm-11.2-8.56h6.35l-3.3-6.11-3.05,6.11h0Z"/>
        </g>
      </g>
    </g>
  </g>
</svg>