    <svg id="Layer_1" xmlns="http://www.w3.org/2000/svg" version="1.1" viewBox="0 0 75.38 61.98"> 
      <!-- Generator: Adobe Illustrator 30.1.0, SVG Export Plug-In . SVG Version: 2.1.1 Build 136)  -->
      <defs>
        <style>
		  .st0 {
			fill: #fff;
		  }
		</style>
      </defs>
      <path class="st0" id="s1" d="M30.8,55.09c0-3.81,3.09-6.89,6.89-6.89s6.89,3.09,6.89,6.89-3.09,6.89-6.89,6.89-6.89-3.09-6.89-6.89"/>
      <path class="st0" id="s2" d="M55.4,41.59c-1.26,0-2.52-.48-3.49-1.44-7.84-7.84-20.6-7.84-28.44,0-1.92,1.92-5.05,1.93-6.97,0-1.93-1.93-1.93-5.05,0-6.97,11.69-11.69,30.7-11.69,42.39,0,1.93,1.93,1.93,5.05,0,6.97-.96.96-2.22,1.44-3.49,1.44"/>
      <path class="st0" id="s3" d="M70.45,23.43c-1.26,0-2.52-.48-3.49-1.44-7.82-7.82-18.21-12.13-29.27-12.13s-21.45,4.31-29.27,12.13c-1.92,1.92-5.05,1.92-6.97,0-1.93-1.93-1.93-5.05,0-6.97C11.12,5.33,24,0,37.69,0s26.57,5.33,36.24,15.01c1.93,1.93,1.93,5.05,0,6.97-.96.96-2.22,1.44-3.49,1.44"/>
    </svg>